HIERARCHY
ROOT Pelvis
{
	OFFSET 0.000000 0.000000 0.000000
	CHANNELS 6 Xposition Yposition Zposition Xrotation Yrotation Zrotation
	JOINT LeftUpLeg_virtual
	{
		OFFSET 0.000000 0.000000 0.000000
		CHANNELS 3 Xrotation Yrotation Zrotation
		JOINT LeftUpLeg
		{
			OFFSET 18.735201 -5.666702 -4.541200
			CHANNELS 3 Xrotation Yrotation Zrotation
			JOINT LeftLeg
			{
				OFFSET -0.021200 -31.938179 0.493100
				CHANNELS 3 Xrotation Yrotation Zrotation
				JOINT LeftFoot
				{
					OFFSET 0.021200 -31.938179 -4.336299
					CHANNELS 3 Xrotation Yrotation Zrotation
					JOINT LeftToeBase
					{
						OFFSET 0.943001 -26.722000 15.023500
						CHANNELS 3 Xrotation Yrotation Zrotation
						End Site
						{
							OFFSET 0 0 0
						}
					}
				}
			}
		}
	}
	JOINT RightUpLeg_virtual
	{
		OFFSET 0.000000 0.000000 0.000000
		CHANNELS 3 Xrotation Yrotation Zrotation
		JOINT RightUpLeg
		{
			OFFSET -18.735201 -5.666702 -4.541200
			CHANNELS 3 Xrotation Yrotation Zrotation
			JOINT RightLeg
			{
				OFFSET 0.018946 -31.938133 0.493100
				CHANNELS 3 Xrotation Yrotation Zrotation
				JOINT RightFoot
				{
					OFFSET -0.018946 -31.938126 -4.336299
					CHANNELS 3 Xrotation Yrotation Zrotation
					JOINT RightToeBase
					{
						OFFSET -0.943001 -26.722004 15.023500
						CHANNELS 3 Xrotation Yrotation Zrotation
						End Site
						{
							OFFSET 0 0 0
						}
					}
				}
			}
		}
	}
	JOINT Hips_virtual
	{
		OFFSET 0.000000 0.000000 0.000000
		CHANNELS 3 Xrotation Yrotation Zrotation
		JOINT Hips
		{
			OFFSET -0.000000 -0.000000 -0.000000
			CHANNELS 3 Xrotation Yrotation Zrotation
			JOINT Spine
			{
				OFFSET 0.000000 10.199997 -0.299500
				CHANNELS 3 Xrotation Yrotation Zrotation
				JOINT Spine1
				{
					OFFSET 0.000000 11.900002 -1.516600
					CHANNELS 3 Xrotation Yrotation Zrotation
					JOINT Spine2
					{
						OFFSET 0.000000 13.600006 -2.842500
						CHANNELS 3 Xrotation Yrotation Zrotation
						JOINT Neck_virtual
						{
							OFFSET 0.000000 0.000000 0.000000
							CHANNELS 3 Xrotation Yrotation Zrotation
							JOINT Neck
							{
								OFFSET 0.000000 9.624100 -2.890100
								CHANNELS 3 Xrotation Yrotation Zrotation
								JOINT Head
								{
									OFFSET 0.000000 14.068802 -1.351900
									CHANNELS 3 Xrotation Yrotation Zrotation
									End Site
									{
										OFFSET 0 0 0
									}
								}
							}
						}
						JOINT LeftShoulder_virtual
						{
							OFFSET 0.000000 0.000000 0.000000
							CHANNELS 3 Xrotation Yrotation Zrotation
							JOINT LeftShoulder
							{
								OFFSET 15.263000 10.923401 -0.547700
								CHANNELS 3 Xrotation Yrotation Zrotation
								JOINT LeftArm
								{
									OFFSET 25.438599 -2.830597 -13.032500
									CHANNELS 3 Xrotation Yrotation Zrotation
									JOINT LeftForeArm
									{
										OFFSET 29.960503 0.000000 0.000000
										CHANNELS 3 Xrotation Yrotation Zrotation
										JOINT LeftHand
										{
											OFFSET 27.849251 0.000000 0.000000
											CHANNELS 3 Xrotation Yrotation Zrotation
											End Site
											{
												OFFSET 0 0 0
											}
										}
									}
								}
							}
						}
						JOINT RightShoulder_virtual
						{
							OFFSET 0.000000 0.000000 0.000000
							CHANNELS 3 Xrotation Yrotation Zrotation
							JOINT RightShoulder
							{
								OFFSET -15.263000 10.923401 -0.547700
								CHANNELS 3 Xrotation Yrotation Zrotation
								JOINT RightArm
								{
									OFFSET -25.438599 -2.830597 -13.032500
									CHANNELS 3 Xrotation Yrotation Zrotation
									JOINT RightForeArm
									{
										OFFSET -29.960503 0.000000 0.000000
										CHANNELS 3 Xrotation Yrotation Zrotation
										JOINT RightHand
										{
											OFFSET -27.849251 0.000000 0.000000
											CHANNELS 3 Xrotation Yrotation Zrotation
											End Site
											{
												OFFSET 0 0 0
											}
										}
									}
								}
							}
						}
					}
				}
			}
		}
	}
}
MOTION
Frames: 10
Frame Time: 0.03333333
-5.833419 89.450150 1.239121 0.000000 0.000000 0.000000 5.314485 -42.353047 6.037318 -39.712834 -1.923932 19.403961 41.473107 -6.737235 -1.179164 -10.552968 -5.381103 -13.014928 0.000000 0.000000 0.000000 15.905482 -27.019433 8.271505 -13.925095 -14.792050 -12.195183 37.351825 -4.973720 0.900817 -15.670226 -8.637696 8.542400 0.000000 0.000000 0.000000 2.698482 -17.951206 3.607985 -12.509985 -19.889222 -2.684224 4.348022 0.608889 -2.307453 3.738624 0.967499 -1.323667 0.000000 0.000000 0.000000 -2.280644 0.732798 0.343253 -1.980827 -0.169357 2.426801 0.000000 0.000000 0.000000 0.367534 1.686214 -6.106328 -6.497005 -6.019890 -10.003667 26.571581 -20.243981 -24.306857 24.232181 -37.475165 4.624841 0.000000 0.000000 0.000000 0.360582 1.935042 -2.546393 -0.012926 15.866868 -20.752085 -89.168222 -2.446198 18.459291 -52.214033 33.967125 33.013241 0.000000 0.000000 0.000000 
-5.334796 89.271202 0.915129 0.000000 0.000000 0.000000 5.290437 -42.990785 6.095912 -39.870806 -2.108645 19.396562 41.299838 -6.453477 -1.415684 -10.521928 -5.013149 -13.183083 0.000000 0.000000 0.000000 15.770847 -27.652327 8.186135 -14.343554 -14.903276 -12.522215 37.510508 -4.459099 0.634847 -15.544402 -8.037567 8.498506 0.000000 0.000000 0.000000 2.441036 -19.123917 3.738947 -11.551526 -19.612654 -2.110338 4.776338 0.565035 -2.225614 3.821783 0.950330 -1.263914 0.000000 0.000000 0.000000 -1.959614 0.955319 0.372997 -1.905205 0.101564 2.355091 0.000000 0.000000 0.000000 0.511044 1.547872 -5.888616 -6.320921 -5.786926 -9.989944 26.591064 -19.700400 -24.921535 23.860281 -37.262087 4.604374 0.000000 0.000000 0.000000 0.464601 2.020611 -2.305984 -0.269313 15.818066 -18.767099 -86.423975 -2.319591 19.418650 -51.169773 37.196978 33.343932 0.000000 0.000000 0.000000 
-4.863986 89.086372 0.622771 0.000000 0.000000 0.000000 5.213862 -43.604115 6.127319 -40.070261 -2.294398 19.379053 41.161049 -6.170641 -1.643406 -10.460626 -4.652545 -13.343078 0.000000 0.000000 0.000000 15.599242 -28.302470 8.069696 -14.801802 -15.008198 -12.877669 37.700527 -3.927356 0.375359 -15.394765 -7.421820 8.477154 0.000000 0.000000 0.000000 2.189868 -20.309631 3.852415 -10.491042 -19.417150 -1.562988 5.202415 0.547767 -2.166377 3.907639 0.946959 -1.220624 0.000000 0.000000 0.000000 -1.626814 1.187605 0.399270 -1.823916 0.375577 2.284484 0.000000 0.000000 0.000000 0.660270 1.414229 -5.666437 -6.137042 -5.558160 -9.946714 26.480099 -19.123853 -25.575978 23.405691 -37.026858 4.557967 0.000000 0.000000 0.000000 0.557932 2.118583 -2.050793 -0.544827 15.798853 -16.722345 -83.778479 -1.938727 20.115617 -50.127551 40.312227 33.391528 0.000000 0.000000 0.000000 
-4.416123 88.892349 0.366308 0.000000 0.000000 0.000000 5.088146 -44.187000 6.132270 -40.304834 -2.479210 19.352318 41.053409 -5.892393 -1.858411 -10.373434 -4.304225 -13.490597 0.000000 0.000000 0.000000 15.392207 -28.971357 7.924058 -15.295667 -15.107704 -13.257637 37.915937 -3.381727 0.127570 -15.226274 -6.796235 8.484564 0.000000 0.000000 0.000000 1.941641 -21.498697 3.944722 -9.354109 -19.289106 -1.062116 5.622320 0.556724 -2.127804 3.994727 0.956800 -1.192583 0.000000 0.000000 0.000000 -1.288813 1.423993 0.425793 -1.739095 0.648780 2.216877 0.000000 0.000000 0.000000 0.813611 1.284384 -5.440755 -5.946682 -5.339608 -9.877716 26.235224 -18.531546 -26.259448 22.877333 -36.790035 4.492599 0.000000 0.000000 0.000000 0.649557 2.227835 -1.777731 -0.830432 15.807595 -14.612498 -81.247750 -1.317267 20.481212 -49.025472 43.271277 33.104978 0.000000 0.000000 0.000000 
-3.983643 88.686401 0.147251 0.000000 0.000000 0.000000 4.918140 -44.734064 6.112277 -40.567301 -2.661008 19.317428 40.973642 -5.622932 -2.057976 -10.264970 -3.973048 -13.623358 0.000000 0.000000 0.000000 15.151274 -29.660718 7.750664 -15.821285 -15.202690 -13.658805 38.151453 -2.827182 -0.104224 -15.043978 -6.167748 8.524344 0.000000 0.000000 0.000000 1.692258 -22.679793 4.013921 -8.173326 -19.209316 -0.617680 6.033142 0.588650 -2.105748 4.082132 0.978003 -1.177448 0.000000 0.000000 0.000000 -0.952084 1.657990 0.455580 -1.652996 0.917007 2.153760 0.000000 0.000000 0.000000 0.968945 1.157077 -5.212756 -5.751547 -5.136787 -9.786900 25.858866 -17.937264 -26.958016 22.285895 -36.567696 4.415344 0.000000 0.000000 0.000000 0.748409 2.346356 -1.485244 -1.116413 15.839282 -12.437609 -78.817323 -0.474856 20.471665 -47.799546 46.054036 32.449170 0.000000 0.000000 0.000000 
-3.559231 88.467659 -0.035561 0.000000 0.000000 0.000000 4.710664 -45.241824 6.069730 -40.849517 -2.837778 19.275456 40.919271 -5.366847 -2.240949 -10.139529 -3.663478 -13.741657 0.000000 0.000000 0.000000 14.877310 -30.371741 7.549925 -16.375817 -15.293644 -14.078915 38.403558 -2.270212 -0.317276 -14.851980 -5.543908 8.596656 0.000000 0.000000 0.000000 1.437554 -23.840304 4.059528 -6.984981 -19.154647 -0.231137 6.433291 0.637804 -2.094512 4.169913 1.007629 -1.172113 0.000000 0.000000 0.000000 -0.622369 1.882693 0.490509 -1.567773 1.176091 2.096022 0.000000 0.000000 0.000000 1.123619 1.030878 -4.983960 -5.553845 -4.954002 -9.678451 25.357839 -17.349664 -27.656725 21.642537 -36.369507 4.332059 0.000000 0.000000 0.000000 0.861440 2.471019 -1.174240 -1.393763 15.884797 -10.207316 -76.442644 0.566159 20.072493 -46.393158 48.661577 31.410947 0.000000 0.000000 0.000000 
-3.138240 88.237572 -0.185317 0.000000 0.000000 0.000000 4.474804 -45.709709 6.008128 -41.142423 -3.007784 19.227508 40.889208 -5.128813 -2.407796 -10.000526 -3.379354 -13.848326 0.000000 0.000000 0.000000 14.570416 -31.104388 7.321435 -16.957627 -15.380449 -14.516416 38.670765 -1.718211 -0.510506 -14.652986 -4.932230 8.698433 0.000000 0.000000 0.000000 1.174296 -24.967487 4.082197 -5.824112 -19.101473 0.102142 6.822183 0.696851 -2.087992 4.259053 1.042033 -1.173315 0.000000 0.000000 0.000000 -0.304532 2.091344 0.531020 -1.485439 1.422183 2.043804 0.000000 0.000000 0.000000 1.274360 0.904428 -4.756258 -5.356429 -4.793701 -9.556705 24.742032 -16.771060 -28.341373 20.957809 -36.197424 4.246521 0.000000 0.000000 0.000000 0.992127 2.597565 -0.848238 -1.655363 15.931070 -7.942072 -74.056599 1.780380 19.296726 -44.764636 51.110685 30.000913 0.000000 0.000000 0.000000 
-2.719768 87.999619 -0.306398 0.000000 0.000000 0.000000 4.221653 -46.140209 5.932236 -41.436459 -3.169783 19.174925 40.883921 -4.913186 -2.560301 -9.850162 -3.123675 -13.948064 0.000000 0.000000 0.000000 14.230507 -31.856972 7.064851 -17.565638 -15.462496 -14.969548 38.953095 -1.178603 -0.684190 -14.448370 -4.339582 8.824411 0.000000 0.000000 0.000000 0.901118 -26.049833 4.083450 -4.719542 -19.029855 0.390685 7.199521 0.757965 -2.081010 4.350971 1.077354 -1.178328 0.000000 0.000000 0.000000 -0.002626 2.277934 0.575945 -1.407907 1.652087 1.996436 0.000000 0.000000 0.000000 1.417177 0.776667 -4.531872 -5.162964 -4.656056 -9.426004 24.023485 -16.197266 -29.000068 20.241064 -36.045483 4.160033 0.000000 0.000000 0.000000 1.139812 2.720861 -0.512912 -1.896547 15.962243 -5.671731 -71.583121 3.135410 18.179223 -42.891467 53.425449 28.250892 0.000000 0.000000 0.000000 
-2.306289 87.758476 -0.403612 0.000000 0.000000 0.000000 3.963300 -46.537911 5.847901 -41.722245 -3.323105 19.119470 40.905036 -4.723510 -2.701040 -9.689360 -2.898428 -14.046371 0.000000 0.000000 0.000000 13.858526 -32.625870 6.780963 -18.197893 -15.538954 -15.435393 39.251267 -0.657989 -0.839462 -14.238532 -3.771650 8.968456 0.000000 0.000000 0.000000 0.618982 -27.078135 4.065456 -3.690548 -18.926873 0.645331 7.564543 0.813809 -2.070451 4.446891 1.109987 -1.185565 0.000000 0.000000 0.000000 0.280077 2.437753 0.622507 -1.336960 1.863541 1.952461 0.000000 0.000000 0.000000 1.547349 0.646966 -4.313322 -4.977996 -4.539037 -9.290667 23.215536 -15.618908 -29.624713 19.500057 -35.901079 4.071281 0.000000 0.000000 0.000000 1.299997 2.835364 -0.175493 -2.114927 15.961365 -3.433102 -68.953820 4.586912 16.770199 -40.772019 55.628763 26.209015 0.000000 0.000000 0.000000 
-1.902408 87.519226 -0.481605 0.000000 0.000000 0.000000 3.711359 -46.908045 5.761465 -41.991638 -3.467581 19.063382 40.954699 -4.562145 -2.832831 -9.518051 -2.704492 -14.148483 0.000000 0.000000 0.000000 13.457769 -33.405530 6.472406 -18.849930 -15.609164 -15.909454 39.566060 -0.161543 -0.977877 -14.023350 -3.232624 9.124621 0.000000 0.000000 0.000000 0.330971 -28.045949 4.030776 -2.746068 -18.788078 0.877889 7.915597 0.858175 -2.055968 4.547362 1.136896 -1.194953 0.000000 0.000000 0.000000 0.541214 2.567737 0.666521 -1.274122 2.055375 1.909770 0.000000 0.000000 0.000000 1.659667 0.515098 -4.103377 -4.806794 -4.439075 -9.155094 22.331573 -15.024352 -30.212543 18.740805 -35.748063 3.976426 0.000000 0.000000 0.000000 1.465423 2.935645 0.155596 -2.309519 15.912150 -1.268055 -66.123744 6.076267 15.129938 -38.425234 57.736832 23.934383 0.000000 0.000000 0.000000 
